{"title":"Paths of Glory(1957)MP-4[DaScubaDude]","uid":12439081,"size":1074878352,"categoryP":"video","categoryS":"movies","magnet":"?xt=urn:btih:b3353358a4871f953c15a7e82e4624c636ad5ab7&amp;dn=Paths+of+Glory%281957%29MP-4%5BDaScubaDude%5D&amp;tr=udp%3A%2F%2Ftracker.openbittorrent.com%3A80&amp;tr=udp%3A%2F%2Fopen.demonii.com%3A1337&amp;tr=udp%3A%2F%2Ftracker.coppersurfer.tk%3A6969&amp;tr=udp%3A%2F%2Fexodus.desync.com%3A6969","seeders":0,"leechers":1,"uploader":"dascuba","files":1,"time":1442554669,"description":"Paths of Glory (1957)\nApproved  |  88 min  |  Drama, War  |  25 October 1957 (West Germany)\n8.5 Your rating:   -/10   Ratings: 8.5/10 from 107,880 users   \nReviews: 339 user | 139 critic\nBased on the 1935 novel of the same name, it tells the story of an ill-fated assault on German forces by French soldiers, and the grippling consequences those soldiers face when they refuse to follow through with it.\n\nDirector: Stanley Kubrick\nWriters: Stanley Kubrick (screenplay), Calder Willingham (screenplay), 2 more credits Â»\nStars: Kirk Douglas, Ralph Meeker, Adolphe Menjou\n\nGeneral\nComplete name                        : C:Paths of GloryPATHS_OF_GLORY_Title1.mp4\nFormat                                   : MPEG-4\nFormat profile                           : Base Media\nCodec ID                                 : isom\nFile size                                : 1.00 GiB\nDuration                                 : 1h 27mn\nOverall bit rate mode                    : Constant\nOverall bit rate                         : 1 633 Kbps\nMovie name                               : PATHS_OF_GLORY\nGenre                                    : War\nWriting application                      : Lavf54.6.100\n\nVideo\nID                                       : 1\nFormat                                   : MPEG-4 Visual\nFormat settings, BVOP                    : No\nFormat settings, QPel                    : No\nFormat settings, GMC                     : No warppoints\nFormat settings, Matrix                  : Default (H.263)\nCodec ID                                 : 20\nDuration                                 : 1h 27mn\nBit rate mode                            : Constant\nBit rate                                 : 1 500 Kbps\nWidth                                    : 720 pixels\nHeight                                   : 540 pixels\nDisplay aspect ratio                     : 4:3\nFrame rate mode                          : Constant\nFrame rate                               : 29.970 fps\nColor space                              : YUV\nChroma subsampling                       : 4:2:0\nBit depth                                : 8 bits\nScan type                                : Progressive\nCompression mode                         : Lossy\nBits/(Pixel*Frame)                       : 0.129\nStream size                              : 941 MiB (92%)\nWriting library                          : Lavc54.23.100\n\nAudio\nID                                       : 2\nFormat                                   : MPEG Audio\nFormat version                           : Version 1\nFormat profile                           : Layer 3\nCodec ID                                 : 6B\nDuration                                 : 1h 27mn\nBit rate mode                            : Constant\nBit rate                                 : 128 Kbps\nChannel(s)                               : 2 channels\nSampling rate                            : 44.1 KHz\nCompression mode                         : Lossy\nStream size                              : 80.3 MiB (8%)\nWriting library                          : LAME3.99.5","torrent":{"xt":"urn:btih:b3353358a4871f953c15a7e82e4624c636ad5ab7","amp;dn":"Paths+of+Glory%281957%29MP-4%5BDaScubaDude%5D","amp;tr":["udp%3A%2F%2Ftracker.openbittorrent.com%3A80","udp%3A%2F%2Fopen.demonii.com%3A1337","udp%3A%2F%2Ftracker.coppersurfer.tk%3A6969","udp%3A%2F%2Fexodus.desync.com%3A6969"],"infoHash":"b3353358a4871f953c15a7e82e4624c636ad5ab7","infoHashBuffer":{"type":"Buffer","data":[179,53,51,88,164,135,31,149,60,21,167,232,46,70,36,198,54,173,90,183]},"announce":[],"urlList":[]}}